<svg width="64" height="64" viewBox="0 0 64 64" fill="none" xmlns="http://www.w3.org/2000/svg">
<g id="Graphic design" clip-path="url(#clip0_295_92)">
<g id="Group">
<path id="Vector" d="M61.2563 1.49381C59.4041 -0.358663 56.477 -0.506026 54.4479 1.15146L36.5404 15.7794H6.25571C3.49557 15.7794 1.25 18.0243 1.25 20.7837V50.9543C1.25 53.7136 3.49557 55.9586 6.25571 55.9586H20.482V60.2502H17.3288C16.2934 60.2502 15.454 61.0897 15.454 62.1251C15.454 63.1605 16.2934 63.9999 17.3288 63.9999H37.3913C38.4267 63.9999 39.2661 63.1605 39.2661 62.1251C39.2661 61.0897 38.4267 60.2502 37.3913 60.2502H34.238V55.9586H48.4644C51.2247 55.9586 53.4702 53.7136 53.4702 50.9543V18.2632L61.6003 8.30013C63.2559 6.27142 63.1081 3.34528 61.2563 1.49381ZM35.3325 23.2834C35.3901 22.1536 35.9049 21.1379 36.7843 20.4218L39.9037 17.8736L44.8842 22.8541L42.3301 25.9839C41.6149 26.8582 40.5998 27.3708 39.4717 27.4271C38.3425 27.4841 37.2822 27.0746 36.4835 26.2759C35.6835 25.476 35.2747 24.4132 35.3325 23.2834ZM33.827 35.3802C32.9961 36.211 31.6124 36.5934 29.7145 36.5173C28.2762 36.4594 27.0443 36.5606 26.0005 36.7487C26.1885 35.705 26.2896 34.4724 26.2318 33.0346C26.1556 31.1366 26.5382 29.7531 27.369 28.9223C28.2314 28.0599 29.3782 27.5848 30.598 27.5848C31.8177 27.5848 32.9644 28.0598 33.8268 28.9223C35.6073 30.7028 35.6073 33.5997 33.827 35.3802ZM30.4884 60.2504H24.2317V55.9587H30.4884V60.2504ZM49.7205 50.9543C49.7205 51.6461 49.1571 52.2089 48.4644 52.2089H6.25571C5.56315 52.2089 4.99969 51.6461 4.99969 50.9543V49.3546H49.7205V50.9543ZM49.7205 45.6049H4.99969V20.7837C4.99969 20.0919 5.56315 19.5291 6.25571 19.5291H32.6758C32.0342 20.6001 31.6525 21.8219 31.5876 23.0923C31.5739 23.361 31.5746 23.6291 31.589 23.8955C31.2624 23.857 30.9319 23.835 30.5981 23.835C28.3768 23.835 26.2883 24.7 24.7177 26.2708C23.1163 27.872 22.3654 30.1983 22.4854 33.1851C22.6451 37.1605 21.3271 38.7563 21.2244 38.8742C20.5228 39.6086 20.5329 40.7726 21.2547 41.4945C21.6208 41.8606 22.1007 42.0437 22.5805 42.0437C23.0467 42.0437 23.513 41.8709 23.8749 41.5252C23.9923 41.4229 25.5884 40.1045 29.5642 40.264C32.5518 40.3842 34.8772 39.6331 36.4786 38.0317C38.3496 36.1606 39.1385 33.6127 38.8503 31.1689C38.992 31.1768 39.1341 31.1817 39.2768 31.1817C39.4039 31.1817 39.5314 31.1786 39.6588 31.1722C41.8268 31.064 43.8584 30.0383 45.2341 28.3565L49.7208 22.8584V45.6049H49.7205ZM23.906 41.4947C23.906 41.4947 23.8968 41.505 23.877 41.5232C23.8868 41.5138 23.8964 41.5043 23.906 41.4947ZM21.2546 38.8431C21.245 38.8527 21.2356 38.8624 21.2262 38.872C21.2444 38.8524 21.2546 38.8431 21.2546 38.8431ZM58.695 5.92957L47.2668 19.9342L42.8222 15.4897L56.8199 4.05548C57.0673 3.85337 57.3656 3.75363 57.663 3.75363C58.0047 3.75363 58.3451 3.88549 58.6048 4.14522C59.0904 4.63068 59.1291 5.39774 58.695 5.92957Z" fill="black"/>
</g>
</g>
<defs>
<clipPath id="clip0_295_92">
<rect width="64" height="64" fill="white"/>
</clipPath>
</defs>
</svg>
