<svg width="20" height="16" viewBox="0 0 20 16" fill="none" xmlns="http://www.w3.org/2000/svg">
<path id="Vector" d="M17.5384 0H2.4615C1.18904 0 0.153809 1.03523 0.153809 2.30769V4.21135L8.62269 10.5106C9.03458 10.817 9.51727 10.9702 9.99996 10.9702C10.4827 10.9702 10.9653 10.817 11.3772 10.5106L19.8461 4.21135V2.30769C19.8461 1.03523 18.8109 0 17.5384 0ZM18.3077 3.43831L10.4591 9.27615C10.1845 9.48042 9.81546 9.48042 9.54089 9.27615L1.69227 3.43831V2.30769C1.69227 1.88354 2.03735 1.53846 2.4615 1.53846H17.5384C17.9626 1.53846 18.3077 1.88354 18.3077 2.30769V3.43831ZM18.3077 7.27304L19.8461 6.12873V13.6923C19.8461 14.9648 18.8109 16 17.5384 16H2.4615C1.18904 16 0.153809 14.9648 0.153809 13.6923V6.12873L1.69227 7.27304V13.6923C1.69227 14.1165 2.03735 14.4615 2.4615 14.4615H17.5384C17.9626 14.4615 18.3077 14.1165 18.3077 13.6923V7.27304Z" fill="white"/>
</svg>
