<svg width="64" height="64" viewBox="0 0 64 64" fill="none" xmlns="http://www.w3.org/2000/svg">
<g id="Fast time" clip-path="url(#clip0_295_114)">
<g id="Group">
<g id="Group_2">
<path id="Vector" d="M61.2879 26.8662C59.1228 22.5745 55.8553 19.0693 51.8353 16.6492L53.2344 12.4003L54.4604 12.804C54.6974 12.8818 54.9412 12.9205 55.184 12.9205C55.543 12.9205 55.9002 12.836 56.2307 12.6692C56.7854 12.389 57.1972 11.9112 57.3899 11.3244L58.4922 7.9788C58.8915 6.76255 58.2275 5.4483 57.0123 5.04917L52.5232 3.57167C52.0314 3.4098 51.5017 3.67717 51.3397 4.16905C51.1778 4.6608 51.4453 5.19067 51.937 5.35255L56.4267 6.8303C56.6563 6.90555 56.7864 7.1638 56.711 7.39305L55.6088 10.7387C55.5594 10.889 55.4478 10.9642 55.3855 10.9954C55.3233 11.0269 55.196 11.072 55.0458 11.0229L41.8864 6.68942C41.7374 6.64042 41.6632 6.5298 41.6323 6.46817C41.6009 6.40567 41.5558 6.2783 41.6055 6.12667L42.7078 2.78105C42.7572 2.6308 42.8688 2.55555 42.9309 2.5243C42.9933 2.49305 43.1204 2.44767 43.2704 2.49667L47.9365 4.03455C48.4282 4.19667 48.9582 3.9293 49.1203 3.43767C49.2824 2.94592 49.015 2.41605 48.5234 2.25392L43.8563 0.715672C43.2688 0.523047 42.6403 0.570797 42.0859 0.850672C41.5312 1.1308 41.1194 1.60855 40.9268 2.1953L39.8245 5.54092C39.4249 6.75767 40.0874 8.07205 41.3007 8.47055L42.5275 8.87455L41.1265 13.1212C39.2147 12.9418 37.2858 12.9845 35.3533 13.2525C34.8404 13.3235 34.4823 13.7969 34.5534 14.3097C34.6244 14.8225 35.0987 15.1814 35.6105 15.1095C39.1484 14.6193 42.674 14.9413 46.0905 16.0669C52.0063 18.0158 56.8089 22.1509 59.6138 27.7107C62.4187 33.2703 62.89 39.5892 60.9412 45.5034C56.9218 57.7118 43.717 64.3737 31.5057 60.3543C25.5918 58.407 20.7903 54.2725 17.9858 48.712C15.1813 43.1517 14.7099 36.8323 16.6588 30.9179C18.9604 23.9252 24.5174 18.3708 31.5239 16.06C32.0155 15.8978 32.2827 15.3678 32.1205 14.876C31.9583 14.3845 31.4288 14.1175 30.9365 14.2794C29.3457 14.8042 27.8072 15.4905 26.3504 16.3193H18.8402C18.3224 16.3193 17.9028 16.7389 17.9028 17.2567C17.9028 17.7744 18.3224 18.194 18.8402 18.194H23.5157C22.6794 18.8305 21.882 19.5165 21.1338 20.2513C18.5164 22.8219 16.4759 25.9847 15.1914 29.4429H8.63642C8.11867 29.4429 7.69905 29.8625 7.69905 30.3803C7.69905 30.898 8.11867 31.3177 8.63642 31.3177H14.5768C13.5182 35.0225 13.3244 38.8509 13.9802 42.5632H3.96667C3.44892 42.5632 3.0293 42.9828 3.0293 43.5005C3.0293 44.0183 3.44892 44.4379 3.96667 44.4379H14.3868C14.8368 46.1885 15.4785 47.9035 16.312 49.5563C17.4624 51.8372 18.9245 53.8952 20.6445 55.6869H12.2184C11.7007 55.6869 11.281 56.1065 11.281 56.6243C11.281 57.142 11.7007 57.5617 12.2184 57.5617H22.6562C25.0637 59.5694 27.8525 61.1252 30.9195 62.1349C33.526 62.9929 36.1729 63.4004 38.7785 63.4003C49.3612 63.3995 59.2374 56.6738 62.722 46.0898C64.8278 39.7002 64.3184 32.873 61.2879 26.8662ZM43.0175 13.3734L44.3083 9.46105L51.4535 11.814L50.1648 15.7277C49.0495 15.1668 47.885 14.6843 46.6774 14.2864C45.469 13.8883 44.2478 13.585 43.0175 13.3734Z" fill="black"/>
<path id="Vector_2" d="M0.937375 18.1938H12.5941C13.1119 18.1938 13.5315 17.7742 13.5315 17.2565C13.5315 16.7387 13.1119 16.3191 12.5941 16.3191H0.937375C0.419625 16.3191 0 16.7387 0 17.2565C0 17.7742 0.419625 18.1938 0.937375 18.1938Z" fill="black"/>
<path id="Vector_3" d="M4.68591 22.8811C4.16816 22.8811 3.74854 23.3007 3.74854 23.8185C3.74854 24.3362 4.16816 24.7559 4.68591 24.7559H13.4975C14.0153 24.7559 14.4349 24.3362 14.4349 23.8185C14.4349 23.3007 14.0153 22.8811 13.4975 22.8811H4.68591Z" fill="black"/>
<path id="Vector_4" d="M8.46838 36.9386C8.46838 36.4208 8.04875 36.0012 7.531 36.0012H0.937375C0.419625 36.0012 0 36.4208 0 36.9386C0 37.4563 0.419625 37.876 0.937375 37.876H7.531C8.04875 37.8761 8.46838 37.4563 8.46838 36.9386Z" fill="black"/>
<path id="Vector_5" d="M12.217 50.0626C12.217 49.5449 11.7974 49.1252 11.2796 49.1252H6.68786C6.17011 49.1252 5.75049 49.5449 5.75049 50.0626C5.75049 50.5804 6.16999 51 6.68786 51H11.2796C11.7974 51 12.217 50.5804 12.217 50.0626Z" fill="black"/>
<path id="Vector_6" d="M19.959 32.0076C16.5392 42.397 22.2079 53.6312 32.5953 57.0505C34.6365 57.7231 36.7342 58.057 38.8227 58.057C41.8828 58.057 44.923 57.34 47.7347 55.9219C52.4649 53.5359 55.9833 49.4502 57.6415 44.4176C57.6442 44.4096 57.6467 44.4016 57.6492 44.3936L57.6566 44.3691C61.0454 33.9964 55.3728 22.7846 45.0072 19.3714C43.097 18.7346 41.082 18.3965 39.0693 18.3669C37.0463 18.337 35.0214 18.6236 33.0854 19.2106C31.9776 19.5465 30.8994 19.9797 29.8659 20.5012C25.1358 22.8881 21.6174 26.9744 19.959 32.0076ZM56.1399 42.8969L42.8544 38.5216C42.919 37.779 42.7777 37.0312 42.4337 36.3491C42.0895 35.6669 41.5722 35.1087 40.9367 34.7196L45.3015 21.4676C53.8372 24.7754 58.5335 34.0611 56.1399 42.8969ZM39.7945 40.1259C39.2737 40.3884 38.6819 40.4325 38.1278 40.2504C36.9848 39.8742 36.3613 38.6377 36.7375 37.4937C37.0393 36.5766 37.8952 35.9939 38.8127 35.9939C39.038 35.9939 39.2673 36.0291 39.4927 36.1031C39.493 36.1032 39.4933 36.1034 39.4937 36.1035C39.494 36.1036 39.4943 36.1036 39.4947 36.1037C40.0479 36.286 40.497 36.6729 40.7595 37.1932C41.022 37.7136 41.0663 38.3054 40.8844 38.8592C40.8843 38.8595 40.8843 38.8596 40.8842 38.8599C40.884 38.8601 40.8841 38.8605 40.8839 38.8607C40.7018 39.4141 40.3149 39.8634 39.7945 40.1259ZM38.7819 20.2404C40.3672 20.2404 41.9585 20.4539 43.5205 20.8815L39.1557 34.1335C38.4129 34.0689 37.6652 34.2102 36.983 34.5544C36.7515 34.6711 36.5348 34.8084 36.3334 34.9627L30.0799 29.2624C29.6972 28.9136 29.1043 28.941 28.7555 29.3236C28.4068 29.7062 28.4343 30.2991 28.8168 30.648L35.1523 36.423C35.0778 36.5794 35.0117 36.7407 34.9567 36.908C34.6179 37.9375 34.7002 39.0372 35.1882 40.005C35.6764 40.9729 36.5123 41.6926 37.5417 42.0312C37.8109 42.1199 38.085 42.1765 38.3602 42.2079L38.6787 44.9346C38.7344 45.412 39.1394 45.7634 39.6085 45.7634C39.6449 45.7634 39.6817 45.7611 39.7185 45.7569C40.2328 45.6969 40.6009 45.2312 40.5408 44.717L40.2213 41.9816C40.3627 41.9289 40.502 41.8687 40.6387 41.7999C41.3209 41.4557 41.879 40.9384 42.268 40.3026L55.5578 44.6792C54.0694 48.5475 51.3342 51.7337 47.7389 53.7906L46.693 51.7166C46.4599 51.2542 45.8962 51.0685 45.434 51.3017C44.9718 51.5347 44.786 52.0985 45.0192 52.5607L46.0665 54.6377C42.2742 56.3204 38.0813 56.6357 34.0799 55.5401L34.8098 53.3249C34.9719 52.8332 34.7045 52.3032 34.2128 52.1412C33.7205 51.979 33.191 52.2465 33.0292 52.7382L32.2992 54.9537C28.3255 53.4142 25.1853 50.5815 23.2039 47.1021L25.2713 46.0595C25.7335 45.8264 25.9193 45.2627 25.6862 44.8005C25.4532 44.3381 24.8893 44.1521 24.4272 44.3856L22.362 45.4271C20.7528 41.7664 20.35 37.5615 21.4795 33.4557L23.6627 34.176C23.7602 34.2082 23.8592 34.2235 23.9564 34.2235C24.35 34.2235 24.7164 33.9736 24.8464 33.5795C25.0087 33.0879 24.7415 32.5577 24.2499 32.3956L22.0697 31.6764C23.5702 27.8234 26.3097 24.6512 29.9052 22.6067L30.9322 24.6381C31.0972 24.9645 31.4272 25.1529 31.7695 25.1529C31.9118 25.1529 32.0562 25.1202 32.1918 25.0517C32.6538 24.8181 32.839 24.2542 32.6054 23.7922L31.5807 21.7651C33.8794 20.7526 36.3232 20.2404 38.7819 20.2404Z" fill="black"/>
</g>
</g>
</g>
<defs>
<clipPath id="clip0_295_114">
<rect width="64" height="64" fill="white"/>
</clipPath>
</defs>
</svg>
