<svg width="16" height="16" viewBox="0 0 16 16" fill="none" xmlns="http://www.w3.org/2000/svg">
<g id="Group">
<path id="Vector" d="M11.5845 0H4.41533C1.98072 0 0 1.98081 0 4.41542V11.5846C0 14.0193 1.98072 16 4.41533 16H11.5845C14.0193 16 16 14.0192 16 11.5846V4.41542C16.0001 1.98081 14.0193 0 11.5845 0ZM14.5805 11.5846C14.5805 13.2365 13.2365 14.5804 11.5846 14.5804H4.41533C2.76348 14.5805 1.4196 13.2365 1.4196 11.5846V4.41542C1.4196 2.76358 2.76348 1.4196 4.41533 1.4196H11.5845C13.2364 1.4196 14.5804 2.76358 14.5804 4.41542V11.5846H14.5805Z" fill="white"/>
<path id="Vector_2" d="M7.99999 3.87738C5.72665 3.87738 3.8772 5.72683 3.8772 8.00018C3.8772 10.2734 5.72665 12.1228 7.99999 12.1228C10.2733 12.1228 12.1228 10.2734 12.1228 8.00018C12.1228 5.72683 10.2733 3.87738 7.99999 3.87738ZM7.99999 10.7031C6.50951 10.7031 5.29679 9.49056 5.29679 8.00008C5.29679 6.5095 6.50941 5.29688 7.99999 5.29688C9.49057 5.29688 10.7032 6.5095 10.7032 8.00008C10.7032 9.49056 9.49047 10.7031 7.99999 10.7031Z" fill="white"/>
<path id="Vector_3" d="M12.2957 2.67371C12.0222 2.67371 11.7535 2.78443 11.5603 2.97845C11.3662 3.17151 11.2546 3.44029 11.2546 3.71474C11.2546 3.98835 11.3663 4.25703 11.5603 4.45104C11.7534 4.64411 12.0222 4.75578 12.2957 4.75578C12.5701 4.75578 12.838 4.64411 13.032 4.45104C13.226 4.25703 13.3367 3.98825 13.3367 3.71474C13.3367 3.44029 13.226 3.17151 13.032 2.97845C12.8389 2.78443 12.5701 2.67371 12.2957 2.67371Z" fill="white"/>
</g>
</svg>
