<svg width="115" height="25" viewBox="0 0 115 25" fill="none" xmlns="http://www.w3.org/2000/svg">
<g id="Group">
<path id="Vector" d="M5.66369 19.0162V0.5H0V24.063H16.1428V19.0162H5.66369Z" fill="white"/>
<path id="Vector_2" d="M37.0925 14.7749C37.0925 10.3708 33.6308 5.75241 27.8044 5.75241C22.6548 5.75241 18.5162 9.99375 18.5162 15.1433C18.5162 20.2929 22.2435 24.5 28.1471 24.5C32.5855 24.5 34.8304 22.7006 36.2528 20.8413L32.0114 18.0309C31.3002 19.2133 30.3149 19.8988 28.3185 19.8988C26.1764 19.8988 24.5912 18.8106 24.0086 16.8142H36.9639C37.0325 16.3343 37.101 15.6574 37.101 14.7749H37.0925ZM23.94 13.284C24.4198 11.1162 25.8765 9.99375 27.9414 9.99375C30.0064 9.99375 31.3688 11.2447 31.8401 13.284H23.94Z" fill="white"/>
<path id="Vector_3" d="M62.3948 5.75241C59.653 5.75241 57.7508 6.7035 56.6969 8.09157C55.7115 6.56641 54.0493 5.75241 51.4788 5.75241C49.3452 5.75241 47.6487 6.53213 46.5262 7.65459V6.19797H41.2053V24.0287H46.869V13.5839C46.869 12.2644 47.7172 10.7735 49.6794 10.7735C51.513 10.7735 52.3613 12.2986 52.3613 13.9952V24.0287H58.025V13.5839C58.025 12.2986 58.8733 10.7735 60.8354 10.7735C62.669 10.7735 63.5173 12.2986 63.5173 13.9952V24.0287H69.181V12.907C69.181 9.00839 66.9104 5.75241 62.4034 5.75241H62.3948Z" fill="white"/>
<path id="Vector_4" d="M86.7204 15.0319C86.7204 15.0319 86.7204 15.0834 86.7204 15.1091C86.7204 17.6881 85.0925 19.4789 82.6505 19.4789C80.2085 19.4789 78.5462 17.6453 78.5462 15.1433C78.5462 12.6414 80.1485 10.8335 82.5991 10.8077V5.78668C76.9182 5.78668 72.8483 9.79668 72.8483 15.1433C72.8483 20.49 76.9182 24.5 82.6162 24.5C88.3142 24.5 92.4184 20.4643 92.4184 15.1433V15.0319H86.7204Z" fill="white"/>
<path id="Vector_5" d="M107.387 5.75241C105.22 5.75241 103.454 6.49786 102.229 7.62032V6.19797H96.9083V24.063H102.572V13.6182C102.572 11.9902 103.96 10.7735 105.657 10.7735C107.353 10.7735 108.673 11.8959 108.673 13.8238V24.063H114.336V12.7014C114.336 8.59711 111.586 5.75241 107.387 5.75241Z" fill="white"/>
<path id="Vector_6" d="M94.4406 4.12443H88.7426C88.7083 6.62639 87.1318 8.34863 84.6812 8.34863H84.6298V13.3697H84.6469C90.3363 13.3697 94.3892 9.41968 94.4491 4.12443H94.4406Z" fill="white"/>
</g>
</svg>
