<svg width="64" height="64" viewBox="0 0 64 64" fill="none" xmlns="http://www.w3.org/2000/svg">
<g id="Quality" clip-path="url(#clip0_295_95)">
<g id="XMLID_1364_">
<g id="XMLID_141_">
<path id="XMLID_162_" d="M57.1056 56.121L49.0093 42.0979C50.3522 40.9671 51.2802 39.3589 51.5281 37.5365C51.6965 36.2973 52.3338 35.1932 53.3228 34.4277C55.8863 32.4434 56.8192 28.962 55.5913 25.9616C55.1176 24.8041 55.1176 23.5293 55.5913 22.372C56.8192 19.3716 55.8863 15.8903 53.3228 13.9059C52.3338 13.1404 51.6964 12.0363 51.5281 10.7971C51.0912 7.58489 48.5425 5.03626 45.3303 4.59956C44.0912 4.43104 42.9872 3.79369 42.2218 2.80479C40.2373 0.241149 36.7562 -0.691618 33.7555 0.536194C32.5981 1.00989 31.3233 1.00989 30.166 0.536194C27.1658 -0.691743 23.6842 0.241149 21.6998 2.80479C20.9343 3.79369 19.8303 4.43104 18.5911 4.59956C15.3787 5.03638 12.8302 7.58489 12.3935 10.7973C12.225 12.0364 11.5876 13.1405 10.5987 13.906C8.0351 15.8904 7.10233 19.3718 8.33014 22.3721C8.80384 23.5294 8.80384 24.8044 8.33014 25.9617C7.10221 28.962 8.0351 32.4434 10.5987 34.4279C11.5876 35.1934 12.225 36.2974 12.3935 37.5365C12.6446 39.3829 13.5942 41.009 14.9655 42.1418L6.89455 56.121C6.64176 56.559 6.67752 57.1061 6.98544 57.5071C7.29324 57.9082 7.81219 58.0846 8.30089 57.9537L15.3358 56.0687L17.2127 63.0733C17.3436 63.5618 17.7558 63.9232 18.2572 63.9892C18.3119 63.9965 18.3665 64 18.4207 64C18.863 64 19.2778 63.7649 19.503 63.3749L28.212 48.2905C28.8724 48.2193 29.53 48.0577 30.1658 47.7974C31.3233 47.3237 32.5982 47.3237 33.7554 47.7974C34.4184 48.0688 35.105 48.2342 35.7937 48.3002L44.497 63.3749C44.7223 63.7651 45.137 64 45.5793 64C45.6336 64 45.6881 63.9965 45.743 63.9892C46.2443 63.9232 46.6565 63.5618 46.7874 63.0733L48.6644 56.0687L55.6994 57.9537C56.1874 58.0846 56.7069 57.9084 57.0147 57.5071C57.3225 57.1061 57.3584 56.559 57.1056 56.121ZM18.8466 59.5109L17.4273 54.214C17.3414 53.8937 17.132 53.6207 16.8448 53.4549C16.5576 53.2891 16.2166 53.2442 15.8962 53.33L10.569 54.7573L17.1379 43.3797C17.6023 43.5459 18.0885 43.6658 18.591 43.7341C19.8301 43.9027 20.9342 44.54 21.6997 45.5289C22.6712 46.784 24.0018 47.6472 25.4589 48.0583L18.8466 59.5109ZM29.2187 45.4834C27.2548 46.2873 24.9759 45.6766 23.6769 43.9986C22.5074 42.4878 20.8208 41.5139 18.9278 41.2566C16.8251 40.9707 15.1567 39.3025 14.8709 37.1997C14.6135 35.3066 13.6397 33.6201 12.129 32.4506C10.4508 31.1516 9.84025 28.8726 10.644 26.9087C11.3677 25.1406 11.3677 23.1931 10.644 21.425C9.84025 19.4611 10.4508 17.1821 12.129 15.8832C13.6397 14.7137 14.6135 13.0272 14.8709 11.1341C15.1568 9.03136 16.8251 7.36298 18.9278 7.07707C20.8208 6.81978 22.5074 5.846 23.6769 4.33527C24.593 3.15172 25.9961 2.49924 27.4328 2.49924C28.0333 2.49924 28.6397 2.61339 29.2186 2.8503C30.9868 3.57391 32.9344 3.57391 34.7024 2.8503C36.6662 2.04642 38.9453 2.65714 40.2443 4.33527C41.4137 5.846 43.1002 6.81978 44.9931 7.07707C47.0958 7.36298 48.7642 9.03124 49.0501 11.1341C49.3075 13.0272 50.2813 14.7137 51.792 15.8832C53.4701 17.1821 54.0807 19.461 53.277 21.425C52.5534 23.1931 52.5534 25.1406 53.277 26.9087C54.0807 28.8726 53.47 31.1516 51.792 32.4506C50.2813 33.62 49.3075 35.3065 49.0501 37.1995C48.7642 39.3023 47.0958 40.9707 44.9932 41.2565C43.1001 41.5138 41.4136 42.4876 40.2441 43.9984C38.9451 45.6767 36.6662 46.2872 34.7024 45.4833C32.9343 44.7598 30.987 44.7598 29.2187 45.4834ZM48.1038 53.33C47.4366 53.1511 46.7515 53.5471 46.5727 54.214L45.1533 59.5109L38.5297 48.0386C39.9603 47.62 41.265 46.7646 42.2217 45.5289C42.987 44.5399 44.0911 43.9026 45.3302 43.7341C45.8561 43.6626 46.3639 43.5335 46.8479 43.3551L53.4309 54.7573L48.1038 53.33Z" fill="black"/>
<path id="XMLID_1190_" d="M26.2793 19.5422L22.3896 23.4318C22.1552 23.6662 22.0234 23.9843 22.0234 24.3158C22.0234 24.6474 22.1552 24.9654 22.3896 25.1998L29.6849 32.4952C29.9193 32.7296 30.2373 32.8614 30.5689 32.8614C30.9004 32.8614 31.2185 32.7296 31.4529 32.4952L41.6107 22.3374C42.0989 21.8492 42.0989 21.0576 41.6107 20.5694L37.7211 16.6797C37.4865 16.4452 37.1686 16.3135 36.8371 16.3135C36.5055 16.3135 36.1875 16.4452 35.9531 16.6797L30.569 22.0639L28.0476 19.5423C27.8132 19.3079 27.4951 19.1762 27.1636 19.1762C26.8318 19.176 26.5137 19.3078 26.2793 19.5422ZM29.6847 24.7159C29.9191 24.9503 30.2372 25.0821 30.5687 25.0821C30.9003 25.0821 31.2183 24.9503 31.4527 24.7159L36.8368 19.3317L38.9585 21.4534L30.5687 29.8432L25.0416 24.3159L27.1633 22.1944L29.6847 24.7159Z" fill="black"/>
<path id="XMLID_1191_" d="M48.2524 24.5875C48.2524 21.2665 47.2571 18.0726 45.3743 15.3509C43.5357 12.6934 40.9817 10.6612 37.9884 9.47424C37.3463 9.21983 36.62 9.53375 36.3654 10.1756C36.1109 10.8174 36.425 11.5441 37.0667 11.7986C42.3429 13.8908 45.7521 18.9108 45.7521 24.5875C45.7521 32.1704 39.5829 38.3396 32 38.3396C24.4171 38.3396 18.2479 32.1704 18.2479 24.5875C18.2479 18.9107 21.6572 13.8907 26.9334 11.7985C27.5752 11.5439 27.8893 10.8173 27.6347 10.1755C27.3802 9.53363 26.6535 9.21958 26.0117 9.47412C23.0184 10.6612 20.4644 12.6932 18.6257 15.3508C16.7428 18.0724 15.7476 21.2664 15.7476 24.5874C15.7476 33.549 23.0384 40.8399 32 40.8399C40.9616 40.84 48.2524 33.5492 48.2524 24.5875Z" fill="black"/>
<path id="XMLID_1218_" d="M31.9999 10.8351C32.3287 10.8351 32.6513 10.7026 32.8837 10.4688C33.1162 10.2363 33.2501 9.91496 33.2501 9.58491C33.2501 9.25611 33.1164 8.93356 32.8837 8.70102C32.6513 8.46849 32.3287 8.33472 31.9999 8.33472C31.6711 8.33472 31.3486 8.46849 31.1161 8.70102C30.8835 8.93356 30.7498 9.25611 30.7498 9.58491C30.7498 9.91496 30.8835 10.2363 31.1161 10.4688C31.3486 10.7026 31.6711 10.8351 31.9999 10.8351Z" fill="black"/>
</g>
</g>
</g>
<defs>
<clipPath id="clip0_295_95">
<rect width="64" height="64" fill="white"/>
</clipPath>
</defs>
</svg>
