<svg width="16" height="16" viewBox="0 0 16 16" fill="none" xmlns="http://www.w3.org/2000/svg">
<path id="Vector" fill-rule="evenodd" clip-rule="evenodd" d="M13.6417 2.3252C12.1449 0.826563 10.1542 0.000878905 8.03335 0C3.66323 0 0.106592 3.55654 0.104834 7.92783C0.104248 9.3252 0.469287 10.6893 1.16313 11.8916L0.0383301 16L4.24136 14.8975C5.39946 15.5292 6.70327 15.8621 8.03013 15.8625H8.03345C12.4031 15.8625 15.9601 12.3057 15.9618 7.93418C15.9626 5.81563 15.1387 3.82373 13.6417 2.3252ZM8.03335 14.5235H8.03061C6.84819 14.523 5.68853 14.2053 4.67661 13.605L4.43608 13.4621L1.94194 14.1164L2.60767 11.6847L2.45093 11.4354C1.79126 10.3861 1.44292 9.17344 1.44351 7.92832C1.44487 4.29502 4.40112 1.33906 8.03599 1.33906C9.79614 1.33965 11.4507 2.02598 12.6949 3.27158C13.939 4.51719 14.6238 6.17285 14.6232 7.93369C14.6216 11.5673 11.6656 14.5235 8.03335 14.5235ZM11.648 9.58809C11.45 9.48887 10.4759 9.00977 10.2943 8.94355C10.1128 8.87744 9.98061 8.84453 9.84868 9.04277C9.71655 9.24102 9.33696 9.6873 9.22134 9.81943C9.10571 9.95166 8.99028 9.96826 8.79214 9.86904C8.59399 9.76992 7.95571 9.56065 7.19897 8.88574C6.61011 8.36045 6.21255 7.71172 6.09692 7.51348C5.98149 7.31504 6.09595 7.21816 6.18384 7.10918C6.39829 6.84287 6.61304 6.56367 6.67905 6.43154C6.74517 6.29932 6.71206 6.18359 6.66245 6.08447C6.61304 5.98535 6.21685 5.01025 6.05181 4.61348C5.89087 4.22734 5.72769 4.27949 5.60601 4.27344C5.49058 4.26768 5.35845 4.2665 5.22632 4.2665C5.09429 4.2665 4.87964 4.31602 4.698 4.51445C4.51645 4.71279 4.00474 5.19199 4.00474 6.16709C4.00474 7.14219 4.7146 8.08418 4.81362 8.21641C4.91265 8.34863 6.2106 10.3496 8.1978 11.2076C8.67046 11.4119 9.0394 11.5337 9.3272 11.625C9.80181 11.7758 10.2335 11.7545 10.575 11.7035C10.9556 11.6466 11.7469 11.2242 11.9122 10.7615C12.0772 10.2987 12.0772 9.90215 12.0276 9.81943C11.9782 9.73682 11.846 9.6873 11.648 9.58809Z" fill="white"/>
</svg>
