<?xml version="1.0" encoding="UTF-8"?>
<svg width="32" height="32" viewBox="0 0 32 32" version="1.1" xmlns="http://www.w3.org/2000/svg">
  <title>Lemon Logo</title>
  <rect width="32" height="32" rx="8" fill="#000000"/>
  <g transform="translate(5, 6)">
    <path d="M21.17 0.01H15.58C15.55 2.46 14 4.15 11.59 4.15H11.54V9.07H11.56C17.14 9.07 21.11 5.2 21.17 0V0.01Z" fill="white"/>
    <path d="M13.6 10.71C13.6 10.71 13.6 10.76 13.6 10.79C13.6 13.32 12.01 15.08 9.61 15.08C7.21 15.08 5.59 13.29 5.59 10.83C5.59 8.37 7.16 6.6 9.56 6.58V1.64C3.98 1.65 0 5.57 0 10.82C0 16.07 3.99 20 9.58 20C15.17 20 19.19 16.04 19.19 10.82V10.71H13.6Z" fill="white"/>
  </g>
</svg> 